<svg width="744" height="230" viewBox="0 0 744 230" fill="none" xmlns="http://www.w3.org/2000/svg">
<path d="M62.3464 106.88C52.9559 106.88 52.1862 99.9193 52.1862 97.4445V19.1796C52.1862 14.0753 54.1875 9.89913 61.4227 9.89913H112.377C125.924 9.89913 135.161 15.9314 136.7 28.7693L139.933 55.5279H142.396L143.012 54.4452V6.03228L142.242 4.94956H139.779C137.778 11.7552 135.161 12.8379 130.696 9.89913C129.311 8.97108 124.539 5.25891 115.148 5.25891H0V9.12576L1.07759 9.89913H13.085C20.3203 9.89913 22.3215 14.0753 22.3215 19.1796V210.82C22.3215 215.925 20.3203 220.101 13.085 220.101H1.07759L0 220.874V224.741H74.5078V220.874L73.4302 220.101H61.4227C54.1875 220.101 52.1862 215.925 52.1862 210.82V120.955C52.1862 118.48 52.9559 111.52 62.3464 111.52H96.0596C105.45 111.52 105.912 118.48 106.22 120.955L109.299 146.167H111.762L112.377 145.084V73.3154L111.762 72.2327H109.299L106.22 97.4445C105.912 99.9193 105.45 106.88 96.0596 106.88H62.3464Z" fill="#FF0000"/>
<path d="M245.229 230C288.948 230 345.137 192.105 345.137 114.613C345.137 36.8124 288.948 0 245.229 0C201.51 0 145.321 36.8124 145.321 114.613C145.321 192.105 201.51 230 245.229 230ZM184.576 114.613C184.576 20.1076 215.672 4.64022 245.229 4.64022C274.786 4.64022 305.882 20.1076 305.882 114.613C305.882 209.119 274.786 225.669 245.229 225.669C215.672 225.669 184.576 209.119 184.576 114.613Z" fill="#FF0000"/>
<path d="M425.957 220.101C418.721 220.101 416.72 216.079 416.72 210.975V19.1796C416.72 14.0753 418.721 9.89913 425.957 9.89913H444.276L445.353 9.12576V5.25891H358.376V9.12576L359.454 9.89913H377.465C384.7 9.89913 386.701 14.0753 386.701 19.1796V210.82C386.701 215.925 384.7 220.101 377.465 220.101H359.454L358.376 220.874V224.741H484.3C493.691 224.741 498.463 221.029 499.849 220.101C504.313 217.162 506.93 218.245 508.931 225.05H511.394L512.164 223.968V175.555L511.548 174.472H509.085L505.852 201.231C504.313 214.069 495.076 220.101 481.529 220.101H425.957Z" fill="#FF0000"/>
<path d="M587.133 151.426C587.133 145.239 589.289 138.742 592.675 134.721C605.76 118.79 615.151 107.653 623.156 99.3006C636.703 85.2253 649.788 80.7397 664.874 84.4519C727.528 103.477 704.283 164.109 674.726 192.878C673.341 194.116 672.263 195.972 672.263 200.303L671.801 224.741H742.307L741.845 220.101L739.69 218.709C726.451 216.234 720.139 208.655 720.139 199.529C739.074 135.804 713.52 96.0525 671.186 82.2865L729.683 12.9926C731.993 10.3631 733.84 9.89913 736.611 9.89913H742.922L744 9.12576V5.25891H669.954V9.12576L671.032 9.89913H685.194C689.043 9.89913 691.506 11.6005 688.427 15.158L594.984 125.44C588.827 132.71 586.672 126.987 586.672 123.894C586.672 99.9193 586.672 59.3948 586.672 19.1796C586.672 14.0753 588.673 9.89913 595.908 9.89913H614.227L615.305 9.12576V5.25891H528.328V9.12576L529.405 9.89913H547.417C554.652 9.89913 556.653 14.0753 556.653 19.1796C556.653 49.0316 556.653 191.022 556.653 210.82C556.653 215.925 554.652 220.101 547.417 220.101H529.405L528.328 220.874V224.741H615.305V220.874L614.227 220.101H595.908C588.673 220.101 586.672 215.925 586.672 210.82L587.133 151.426Z" fill="#FF0000"/>
</svg>
